# xmcd
#
# Track frame offsets: 
#        150
#        26135
#        47633
#        83947
#        107789
#        135129
#        169934
#        192290
#        227810
#        255818
#        294223
#
# Disc length: 4292 seconds
#
# Revision: 2
# Processed by: cddbd v1.5.2PL0 Copyright (c) Steve Scherf et al.
# Submitted via: ExactAudioCopy v1.0b3
#
DISCID=8810c20b
DTITLE=Makoto Ozone - No Name Horses II
DYEAR=2008
DGENRE=Jazz
TTITLE0=No Strings Attached
TTITLE1=You Always Come Late
TTITLE2=Into The Sky
TTITLE3=Portrait of Duke -dedicated to Herb Pomeroy
TTITLE4=ATFT
TTITLE5=Stepping Stone
TTITLE6=Cookin' for Hungry Horses
TTITLE7=Miyabi
TTITLE8=OK, Just One Last Chance!
TTITLE9=Reconnection
TTITLE10=Someone to Watch Over Me
EXTD=YEAR: 2008
EXTT0=
EXTT1=
EXTT2=
EXTT3=
EXTT4=
EXTT5=
EXTT6=
EXTT7=
EXTT8=
EXTT9=
EXTT10=
PLAYORDER=
